<?xml version="1.0" standalone="no"?>
<!DOCTYPE svg PUBLIC "-//W3C//DTD SVG 20010904//EN"
 "http://www.w3.org/TR/2001/REC-SVG-20010904/DTD/svg10.dtd">
<svg version="1.0" xmlns="http://www.w3.org/2000/svg"
 width="535.000000pt" height="535.000000pt" viewBox="0 0 535.000000 535.000000"
 preserveAspectRatio="xMidYMid meet">
<metadata>
Created by potrace 1.14, written by Peter Selinger 2001-2017
</metadata>
<g transform="translate(0.000000,535.000000) scale(0.100000,-0.100000)"
fill="#000000" stroke="none">
<path d="M1631 4416 c-38 -70 -45 -77 -117 -116 -84 -47 -84 -42 9 -91 58 -30
96 -75 127 -149 7 -17 18 -30 25 -30 7 0 18 13 25 30 31 74 69 119 127 149 93
49 93 44 9 91 -72 39 -79 46 -117 116 -22 41 -42 74 -44 74 -2 0 -22 -33 -44
-74z"/>
<path d="M945 4400 c-44 -33 -79 -66 -79 -74 1 -8 121 -181 268 -384 146 -204
266 -373 266 -377 0 -4 -31 -59 -70 -124 -38 -64 -70 -121 -70 -127 0 -6 18
-19 40 -29 32 -15 40 -23 40 -45 0 -30 27 -60 53 -60 9 0 17 -3 17 -6 0 -3
-301 -460 -670 -1016 l-670 -1010 0 -82 c0 -80 1 -82 29 -99 16 -9 45 -17 65
-17 l37 0 338 509 338 508 116 -107 c64 -60 144 -125 177 -145 152 -92 409
-191 600 -231 126 -26 279 -24 352 5 124 48 283 184 402 343 32 43 62 78 66
78 8 0 12 -5 390 -533 l305 -426 78 0 77 -1 0 83 0 82 -703 975 c-386 536
-719 997 -739 1025 -30 40 -34 52 -22 58 8 4 14 19 14 32 0 18 5 25 20 25 13
0 24 10 30 25 11 28 14 29 41 15 10 -6 19 -8 19 -4 0 3 -39 51 -87 106 -49 55
-94 108 -101 118 -12 17 12 59 252 420 146 221 266 403 266 405 0 8 -164 115
-175 115 -5 0 -133 -187 -284 -416 -250 -377 -277 -415 -300 -412 -20 2 -71
67 -263 333 -132 182 -246 341 -256 355 -28 41 -123 170 -125 170 -1 -1 -38
-28 -82 -60z m689 -1355 c33 -32 63 -32 99 3 24 23 30 25 37 12 5 -8 182 -256
395 -550 353 -491 384 -536 368 -549 -38 -29 -243 -122 -343 -155 -179 -59
-254 -71 -455 -71 -141 0 -197 4 -260 19 -121 28 -220 64 -325 116 -88 45
-234 138 -235 150 0 6 688 1049 692 1050 1 0 13 -11 27 -25z"/>
<path d="M2843 3575 l-52 -45 -3 32 c-3 33 -3 33 -63 36 -77 5 -334 -17 -358
-29 -15 -9 -17 -21 -15 -82 l3 -72 53 -3 52 -3 0 -122 c1 -157 17 -368 30
-381 15 -15 134 -20 159 -7 21 11 21 17 21 261 l0 249 57 3 c55 3 58 4 63 32
5 29 7 27 82 -67 116 -143 114 -140 120 -302 3 -77 9 -148 13 -157 6 -15 20
-18 75 -18 107 0 100 -13 100 184 l0 171 95 117 c52 64 95 123 95 132 0 19
-109 116 -130 116 -20 0 -63 -45 -123 -128 l-46 -64 -26 44 c-56 89 -107 148
-129 148 -12 0 -45 -20 -73 -45z m-195 -22 c-27 -2 -69 -2 -95 0 -27 2 -5 3
47 3 52 0 74 -1 48 -3z m642 -3 c0 -5 -5 -10 -11 -10 -5 0 -7 5 -4 10 3 6 8
10 11 10 2 0 4 -4 4 -10z m-844 -16 c-21 -7 -43 -11 -48 -8 -17 10 14 24 52
23 l35 0 -39 -15z m87 -11 c-7 -2 -21 -2 -30 0 -10 3 -4 5 12 5 17 0 24 -2 18
-5z m347 -28 c13 -14 21 -25 18 -25 -2 0 -15 11 -28 25 -13 14 -21 25 -18 25
2 0 15 -11 28 -25z m440 22 c0 -2 -10 -12 -22 -23 l-23 -19 19 23 c18 21 26
27 26 19z m-711 -23 c2 -2 -12 -4 -33 -4 -22 0 -35 4 -31 10 5 9 52 4 64 -6z
m124 9 c-13 -2 -35 -2 -50 0 -16 2 -5 4 22 4 28 0 40 -2 28 -4z m-255 -10
c-10 -2 -26 -2 -35 0 -10 3 -2 5 17 5 19 0 27 -2 18 -5z m252 -23 c17 -6 9 -7
-25 -3 -27 3 -52 7 -54 9 -8 7 54 2 79 -6z m-232 -7 c-21 -2 -55 -2 -75 0 -21
2 -4 4 37 4 41 0 58 -2 38 -4z m9 -115 c-2 -13 -4 -3 -4 22 0 25 2 35 4 23 2
-13 2 -33 0 -45z m643 22 c-6 -11 -13 -20 -16 -20 -2 0 0 9 6 20 6 11 13 20
16 20 2 0 0 -9 -6 -20z m-13 -132 c-3 -8 -6 -5 -6 6 -1 11 2 17 5 13 3 -3 4
-12 1 -19z m-550 -140 c-2 -13 -4 -5 -4 17 -1 22 1 32 4 23 2 -10 2 -28 0 -40z
m520 0 c-3 -7 -5 -2 -5 12 0 14 2 19 5 13 2 -7 2 -19 0 -25z m-590 -30 c-3 -7
-5 -2 -5 12 0 14 2 19 5 13 2 -7 2 -19 0 -25z m587 -33 c-4 -8 -8 -15 -10 -15
-2 0 -4 7 -4 15 0 8 4 15 10 15 5 0 7 -7 4 -15z m-527 -47 c-2 -13 -4 -5 -4
17 -1 22 1 32 4 23 2 -10 2 -28 0 -40z m-50 -25 c-2 -16 -4 -5 -4 22 0 28 2
40 4 28 2 -13 2 -35 0 -50z"/>
<path d="M3441 3590 c-18 -4 -38 -14 -42 -22 -9 -12 -6 -229 7 -526 7 -154 6
-152 115 -152 97 0 99 3 99 126 l0 104 28 11 c65 25 251 122 255 134 3 7 -6
37 -20 66 -14 30 -25 69 -24 87 2 33 1 33 -144 104 -152 74 -202 86 -274 68z
m6 -107 c-2 -16 -4 -5 -4 22 0 28 2 40 4 28 2 -13 2 -35 0 -50z m150 51 c-3
-3 -12 -4 -19 -1 -8 3 -5 6 6 6 11 1 17 -2 13 -5z m143 -64 c19 -11 31 -19 25
-19 -5 0 -26 8 -45 19 -19 11 -30 19 -25 19 6 0 26 -8 45 -19z m-95 -10 c3 -5
2 -10 -4 -10 -5 0 -13 5 -16 10 -3 6 -2 10 4 10 5 0 13 -4 16 -10z m-136 -77
c1 -7 -6 -13 -15 -13 -11 0 -14 5 -10 16 3 9 6 23 7 32 0 14 2 13 9 -3 5 -11
9 -26 9 -32z m176 -3 c3 -5 2 -10 -4 -10 -5 0 -13 5 -16 10 -3 6 -2 10 4 10 5
0 13 -4 16 -10z m-60 -30 c3 -5 1 -10 -4 -10 -6 0 -11 5 -11 10 0 6 2 10 4 10
3 0 8 -4 11 -10z m75 -25 c-14 -8 -29 -14 -35 -14 -5 0 1 6 15 14 14 8 30 14
35 14 6 0 -1 -6 -15 -14z m140 10 c0 -2 -10 -9 -22 -15 -22 -11 -22 -10 -4 4
21 17 26 19 26 11z m-154 -80 c-11 -8 -25 -15 -30 -15 -6 1 0 7 14 15 32 19
40 18 16 0z m103 -9 c-2 -2 -15 -9 -29 -15 -24 -11 -24 -11 -6 3 16 13 49 24
35 12z m-272 -98 c-3 -8 -6 -5 -6 6 -1 11 2 17 5 13 3 -3 4 -12 1 -19z m60
-105 c-2 -16 -4 -5 -4 22 0 28 2 40 4 28 2 -13 2 -35 0 -50z"/>
<path d="M4015 3593 c-16 -2 -47 -9 -67 -14 l-38 -10 0 -75 c0 -68 2 -75 23
-84 12 -5 16 -9 9 -9 -10 -1 -12 -56 -10 -258 l3 -258 58 -9 c34 -5 76 -5 100
0 l42 9 3 70 c4 80 -15 361 -27 418 -7 29 -6 37 5 37 11 0 14 20 14 89 0 107
-3 109 -115 94z m42 -39 c-3 -3 -12 -4 -19 -1 -8 3 -5 6 6 6 11 1 17 -2 13 -5z
m-32 -54 c-3 -5 -18 -10 -33 -9 l-27 1 25 8 c35 11 42 11 35 0z m72 4 c-3 -3
-12 -4 -19 -1 -8 3 -5 6 6 6 11 1 17 -2 13 -5z m-44 -61 c-7 -2 -19 -2 -25 0
-7 3 -2 5 12 5 14 0 19 -2 13 -5z m15 -138 c0 -29 0 -29 -8 -5 -4 14 -8 36 -8
50 -1 23 0 23 8 5 5 -11 8 -33 8 -50z m19 -278 c-2 -23 -3 -1 -3 48 0 50 1 68
3 42 2 -26 2 -67 0 -90z m-120 31 c-2 -18 -4 -6 -4 27 0 33 2 48 4 33 2 -15 2
-42 0 -60z m80 -20 c-3 -7 -5 -2 -5 12 0 14 2 19 5 13 2 -7 2 -19 0 -25z m-56
-89 c-5 -26 -9 -34 -10 -19 -1 27 9 73 15 67 2 -2 0 -23 -5 -48z"/>
<path d="M4479 3520 l-74 -60 -5 52 -5 53 -65 3 c-36 2 -80 0 -97 -3 l-33 -6
0 -327 c0 -242 3 -331 12 -340 18 -18 133 -16 151 3 9 8 18 45 22 86 l7 71 92
-91 c58 -57 99 -91 113 -91 30 0 123 86 123 115 0 17 -36 58 -130 147 l-130
125 110 87 c65 52 110 95 110 105 0 10 -17 42 -38 72 -53 76 -70 76 -163 -1z
m-230 -32 c-1 -74 -17 -92 -18 -20 -1 35 3 62 9 62 6 0 10 -19 9 -42z m361 8
c0 -2 -7 -7 -16 -10 -8 -3 -12 -2 -9 4 6 10 25 14 25 6z m15 -36 c-7 -11 -65
-43 -65 -36 0 4 62 45 68 46 2 0 0 -5 -3 -10z m-165 -4 c0 -2 -8 -10 -17 -17
-16 -13 -17 -12 -4 4 13 16 21 21 21 13z m-40 -110 c0 -2 -8 -10 -17 -17 -16
-13 -17 -12 -4 4 13 16 21 21 21 13z m-9 -103 c13 -16 12 -17 -3 -4 -17 13
-22 21 -14 21 2 0 10 -8 17 -17z m-121 -113 c0 -5 -4 -10 -10 -10 -5 0 -10 5
-10 10 0 6 5 10 10 10 6 0 10 -4 10 -10z m41 -182 l-9 -33 -1 36 c-1 20 2 52
7 70 l7 34 3 -37 c2 -20 -1 -51 -7 -70z m254 12 c10 -11 16 -20 13 -20 -3 0
-13 9 -23 20 -10 11 -16 20 -13 20 3 0 13 -9 23 -20z m59 -9 c-2 -3 -12 3 -22
13 -16 17 -16 18 5 5 12 -7 20 -15 17 -18z"/>
<path d="M3496 2769 c-50 -5 -94 -13 -100 -19 -5 -5 -15 -26 -23 -47 -18 -51
-8 -492 12 -508 7 -6 15 -22 17 -35 3 -25 5 -25 108 -28 58 -1 109 -7 114 -12
14 -14 140 -12 154 2 18 18 17 634 0 645 -19 11 -181 13 -282 2z m107 -36 c-7
-2 -21 -2 -30 0 -10 3 -4 5 12 5 17 0 24 -2 18 -5z m-133 -13 c-8 -5 -24 -10
-35 -10 -17 0 -17 2 -5 10 8 5 24 10 35 10 17 0 17 -2 5 -10z m125 -30 c14 -6
0 -8 -45 -8 -54 1 -59 2 -30 8 47 10 52 10 75 0z m8 -57 c-7 -2 -19 -2 -25 0
-7 3 -2 5 12 5 14 0 19 -2 13 -5z m5 -180 c-3 -131 -5 -148 -20 -151 -17 -3
-18 9 -18 147 0 145 1 151 20 151 20 0 20 -5 18 -147z m-161 -25 c-3 -8 -6 -5
-6 6 -1 11 2 17 5 13 3 -3 4 -12 1 -19z m22 -55 c0 -5 -4 -17 -8 -28 -7 -17
-8 -17 -13 8 -4 19 -1 27 8 27 8 0 14 -3 13 -7z m254 -55 c-8 -44 -10 -45 -15
-4 -3 25 0 36 9 36 9 0 11 -10 6 -32z m-203 -3 c0 -8 -4 -15 -10 -15 -5 0 -7
7 -4 15 4 8 8 15 10 15 2 0 4 -7 4 -15z m83 -52 c-7 -2 -19 -2 -25 0 -7 3 -2
5 12 5 14 0 19 -2 13 -5z m64 -45 c-2 -13 -4 -5 -4 17 -1 22 1 32 4 23 2 -10
2 -28 0 -40z m-54 -5 c-13 -2 -33 -2 -45 0 -13 2 -3 4 22 4 25 0 35 -2 23 -4z
m-75 -30 c-15 -2 -42 -2 -60 0 -18 2 -6 4 27 4 33 0 48 -2 33 -4z m75 -20 c-7
-2 -19 -2 -25 0 -7 3 -2 5 12 5 14 0 19 -2 13 -5z"/>
<path d="M4651 2765 c-109 -24 -252 -76 -258 -94 -3 -9 -17 -28 -31 -43 -25
-28 -26 -28 -8 -64 9 -20 53 -93 96 -161 44 -68 80 -128 80 -132 0 -4 -24 -15
-52 -24 -80 -26 -81 -27 -73 -86 4 -28 15 -61 24 -73 l18 -21 163 37 c90 20
167 39 171 44 3 4 9 30 13 58 l6 51 -110 152 c-66 92 -105 153 -97 156 6 2 47
12 90 21 109 25 109 26 96 102 -11 62 -29 93 -52 91 -7 0 -41 -7 -76 -14z m9
-45 c-8 -5 -22 -9 -30 -9 -10 0 -8 3 5 9 27 12 43 12 25 0z m-53 -16 c-3 -3
-12 -4 -19 -1 -8 3 -5 6 6 6 11 1 17 -2 13 -5z m-137 -44 c-8 -5 -19 -10 -25
-10 -5 0 -3 5 5 10 8 5 20 10 25 10 6 0 3 -5 -5 -10z m265 -10 c-3 -5 -15 -10
-26 -10 -11 0 -17 5 -14 10 3 6 15 10 26 10 11 0 17 -4 14 -10z m-78 -36 c-3
-3 -12 -4 -19 -1 -8 3 -5 6 6 6 11 1 17 -2 13 -5z m-247 -44 c6 -11 8 -20 6
-20 -3 0 -10 9 -16 20 -6 11 -8 20 -6 20 3 0 10 -9 16 -20z m28 -55 c-3 -3 -9
2 -12 12 -6 14 -5 15 5 6 7 -7 10 -15 7 -18z m72 0 c10 -12 10 -15 -3 -15 -8
0 -17 7 -21 15 -3 8 -2 15 3 15 5 0 14 -7 21 -15z m71 -220 l10 -20 -16 20
c-9 11 -21 29 -26 40 l-10 20 16 -20 c9 -11 21 -29 26 -40z m-111 -105 c-8 -5
-19 -10 -25 -10 -5 0 -3 5 5 10 8 5 20 10 25 10 6 0 3 -5 -5 -10z m268 -7
c-10 -2 -28 -2 -40 0 -13 2 -5 4 17 4 22 1 32 -1 23 -4z"/>
<path d="M3111 2751 c-16 -11 -29 -87 -30 -178 -1 -49 -4 -63 -16 -63 -12 0
-15 19 -15 114 0 95 -3 115 -16 120 -25 9 -130 7 -158 -4 -26 -9 -26 -10 -26
-125 0 -90 -3 -120 -15 -131 -9 -10 -15 -34 -15 -64 0 -30 6 -54 15 -64 11
-11 15 -40 15 -123 0 -72 4 -113 12 -121 19 -19 154 -16 162 3 3 9 9 65 12
125 6 98 9 110 26 110 16 0 18 -10 18 -115 0 -107 1 -115 22 -126 21 -11 137
-7 158 6 6 4 10 57 10 119 0 102 2 114 18 118 14 4 20 18 25 57 8 68 -1 109
-24 116 -17 6 -19 17 -19 109 0 66 -4 106 -12 114 -14 14 -126 16 -147 3z m34
-118 c-4 -41 -9 -72 -12 -70 -2 3 -1 43 3 89 4 45 9 77 12 70 2 -8 1 -47 -3
-89z m-248 25 c-2 -13 -4 -3 -4 22 0 25 2 35 4 23 2 -13 2 -33 0 -45z m300
-140 c-3 -8 -6 -5 -6 6 -1 11 2 17 5 13 3 -3 4 -12 1 -19z m-110 -34 c-3 -3
-12 -4 -19 -1 -8 3 -5 6 6 6 11 1 17 -2 13 -5z m-144 -11 c-7 -2 -19 -2 -25 0
-7 3 -2 5 12 5 14 0 19 -2 13 -5z m184 -210 c-2 -38 -3 -7 -3 67 0 74 1 105 3
68 2 -38 2 -98 0 -135z m-49 170 c-10 -2 -26 -2 -35 0 -10 3 -2 5 17 5 19 0
27 -2 18 -5z m-145 -30 c-13 -2 -33 -2 -45 0 -13 2 -3 4 22 4 25 0 35 -2 23
-4z m94 1 c-3 -3 -12 -4 -19 -1 -8 3 -5 6 6 6 11 1 17 -2 13 -5z m46 -21 c-7
-2 -21 -2 -30 0 -10 3 -4 5 12 5 17 0 24 -2 18 -5z m-124 -85 c-1 -37 -2 -39
-9 -18 -12 36 -12 60 0 60 6 0 10 -19 9 -42z m-52 -140 c-2 -18 -4 -6 -4 27 0
33 2 48 4 33 2 -15 2 -42 0 -60z m100 40 c-3 -7 -5 -2 -5 12 0 14 2 19 5 13 2
-7 2 -19 0 -25z"/>
<path d="M5000 2740 c-42 -4 -85 -10 -97 -14 -30 -10 -43 -56 -43 -151 0 -64
-3 -84 -15 -89 -11 -4 -15 -22 -15 -76 0 -54 4 -72 15 -76 11 -5 15 -23 15
-77 0 -70 15 -135 35 -149 5 -4 89 -8 186 -8 202 0 189 -7 189 97 0 85 3 83
-121 83 l-109 0 0 25 0 25 104 0 c121 0 116 -4 116 106 0 71 -1 74 -26 80 -14
4 -62 4 -105 1 l-79 -5 0 29 0 29 94 0 c109 0 106 -3 106 100 0 53 -4 69 -16
74 -20 7 -135 6 -234 -4z m145 -31 c-51 -10 -92 -10 -50 1 17 4 44 8 60 8 25
0 24 -2 -10 -9z m-200 -19 c-11 -5 -27 -9 -35 -9 -13 -1 -13 0 0 9 8 5 24 9
35 9 l20 0 -20 -9z m148 -37 c-13 -2 -33 -2 -45 0 -13 2 -3 4 22 4 25 0 35 -2
23 -4z m97 -23 c20 -6 21 -8 5 -8 -11 0 -29 3 -40 8 -25 11 1 11 35 0z m-213
-6 c-3 -3 -12 -4 -19 -1 -8 3 -5 6 6 6 11 1 17 -2 13 -5z m151 -21 c-10 -2
-28 -2 -40 0 -13 2 -5 4 17 4 22 1 32 -1 23 -4z m-121 -80 c-3 -10 -5 -2 -5
17 0 19 2 27 5 18 2 -10 2 -26 0 -35z m126 -50 c-18 -2 -48 -2 -65 0 -18 2 -4
4 32 4 36 0 50 -2 33 -4z m-198 -13 c-11 -5 -29 -8 -40 -8 -16 0 -15 2 5 8 34
11 60 11 35 0z m285 -30 c0 -5 -7 -7 -15 -4 -8 4 -15 8 -15 10 0 2 7 4 15 4 8
0 15 -4 15 -10z m-162 -7 c-15 -2 -42 -2 -60 0 -18 2 -6 4 27 4 33 0 48 -2 33
-4z m161 -28 c2 -3 2 -8 -2 -11 -9 -10 -87 7 -87 18 0 10 78 3 89 -7z m-284
-5 c4 -6 -10 -10 -34 -10 -23 0 -41 5 -41 10 0 6 15 10 34 10 19 0 38 -4 41
-10z m134 6 c-11 -9 -100 -15 -94 -6 3 6 27 10 52 10 26 0 44 -2 42 -4z m49
-23 c-10 -2 -26 -2 -35 0 -10 3 -2 5 17 5 19 0 27 -2 18 -5z m-168 -80 c0 -42
-7 -40 -20 6 -7 24 -6 31 6 31 10 0 14 -12 14 -37z m-3 -65 c-3 -8 -6 -5 -6 6
-1 11 2 17 5 13 3 -3 4 -12 1 -19z m226 15 c-7 -2 -19 -2 -25 0 -7 3 -2 5 12
5 14 0 19 -2 13 -5z m-95 -60 c-10 -2 -26 -2 -35 0 -10 3 -2 5 17 5 19 0 27
-2 18 -5z m142 -23 c0 -12 -24 -12 -60 0 -21 7 -19 8 18 9 23 1 42 -3 42 -9z
m-207 -7 c-18 -2 -48 -2 -65 0 -18 2 -4 4 32 4 36 0 50 -2 33 -4z m120 -10
c-7 -2 -19 -2 -25 0 -7 3 -2 5 12 5 14 0 19 -2 13 -5z"/>
<path d="M3900 2701 c-39 -11 -44 -49 -34 -276 7 -162 6 -209 -3 -217 -8 -6
-13 -34 -13 -69 0 -47 4 -60 19 -69 12 -6 107 -10 240 -10 l221 0 6 27 c4 15
7 47 6 72 -12 423 -18 522 -32 531 -8 5 -45 10 -83 10 -61 0 -68 -2 -76 -23
-8 -21 -31 -327 -31 -412 0 -32 -2 -35 -30 -35 l-30 0 0 229 c0 259 8 235 -85
245 -27 2 -61 1 -75 -3z m117 -103 c-2 -13 -4 -3 -4 22 0 25 2 35 4 23 2 -13
2 -33 0 -45z m160 -45 c-2 -16 -4 -5 -4 22 0 28 2 40 4 28 2 -13 2 -35 0 -50z
m110 5 c-3 -8 -6 -5 -6 6 -1 11 2 17 5 13 3 -3 4 -12 1 -19z m-51 -86 c-12
-11 -18 7 -10 30 l8 23 4 -23 c2 -13 1 -26 -2 -30z m1 -99 c-3 -10 -5 -2 -5
17 0 19 2 27 5 18 2 -10 2 -26 0 -35z m-257 -108 c0 -19 -2 -35 -4 -35 -2 0
-6 16 -8 35 -2 19 0 35 4 35 4 0 8 -16 8 -35z m-53 -127 c-2 -13 -4 -5 -4 17
-1 22 1 32 4 23 2 -10 2 -28 0 -40z m176 35 c-7 -2 -21 -2 -30 0 -10 3 -4 5
12 5 17 0 24 -2 18 -5z m183 -71 c-13 -12 -17 8 -9 44 l8 39 3 -39 c2 -21 1
-41 -2 -44z m-168 41 c-10 -2 -28 -2 -40 0 -13 2 -5 4 17 4 22 1 32 -1 23 -4z
m0 -50 c-10 -2 -28 -2 -40 0 -13 2 -5 4 17 4 22 1 32 -1 23 -4z"/>
</g>
</svg>
